<svg xmlns="http://www.w3.org/2000/svg" viewBox="0 0 640 578"><g fill="none" stroke-width="2"><path stroke="#dcdad9" stroke-opacity=".592" d="M.81 0Q.74.16.56.24a.45.44 77.3 0 0-.25.4L.19 7.25" vector-effect="non-scaling-stroke"/><path stroke="#8f98af" d="M.19 7.25 0 38.2" vector-effect="non-scaling-stroke"/><path stroke="#dcdad9" stroke-opacity=".592" d="M7.53 0h16.31M28.51 0q2.93.59 5.85 0" vector-effect="non-scaling-stroke"/><path stroke="#a7664d" stroke-opacity=".592" d="M34.5 0q2.62.58 5.06 0" vector-effect="non-scaling-stroke"/><path stroke="#dcdad9" stroke-opacity=".592" d="M628.56 0q4.67.47 9.43.09 1.07-.09 1.3.35.21.39-.23.39L1.52.82q-.57 0-.61.58L.55 7.26" vector-effect="non-scaling-stroke"/><path stroke="#1f2b51" stroke-opacity=".592" d="M.55 7.26q-.18-.01-.36-.01" vector-effect="non-scaling-stroke"/><path stroke="#8f98af" d="m0 38.44.25 539.14q0 .09.08.12.13.04.25.08.16.05.16-.11L.55 7.26M145.15 298.96c-4.76 3.87-13.51 8.62-14.98 14.83q-.47 2.02 1.89 2.29 27.39 3.24 51.86-4.85c18.7-6.18 34.63-19.02 52.81-25.65 16.59-6.05 34.34-6.17 51.52-4.07 20.83 2.55 43.66 6.75 65.69 9a.39.38-72.4 0 1 .29.57c-6.94 12.52-15.33 24.12-23.65 35.75a1.94 1.94 0 0 0 .85 2.92c4.39 1.75 7.35.93 12.67-.19q27.93-5.87 48.64-24.75c7.39-6.74 15.09-16.46 22.05-24.97q.33-.4.65.01c9.61 12.44 27.38 16.55 42.24 14.49 5.76-.8 11.97-3.2 15.05-8.39q.27-.46-.18-.74c-13.95-8.78-16.08-31.79-13.84-46.3q.6-3.88 2.95-10.06 2.68-7.08 5.34-16.1 9.75-33.08 15.36-63.48c2.11-11.42 5.06-22.39 12.95-31.39 10.07-11.48 26.33-17.55 33.48-31.83 3.43-6.84 9.44-28.55-6.05-27.38q-1.71.13-4.17 1.43c-13.03 6.87-27.05 6.91-40.99 8.31q-24.26 2.43-39.45 21.27c-18.62 23.08-32.98 63.67-62.16 82.07-23.74 14.96-50.76 21.81-79.55 29.19-25.09 6.43-51.92 17.78-70.75 35.96-6.98 6.74-13.04 16.3-19.28 24.62-7.69 10.26-14.02 15.12-27.15 16.49q-14.93 1.55-21.17 1.92c-13.09.77-25.32 2.37-34.17 12.04q-1.29 1.4.23 2.56c6.23 4.71 13.14 4.37 20.72 3.7a.41.41 0 0 1 .3.73M326.39 356.66a7.72 7.72 0 0 0-7.72-7.72 7.72 7.72 0 0 0-7.72 7.72 7.72 7.72 0 0 0 7.72 7.72 7.72 7.72 0 0 0 7.72-7.72M148.66 380.59l9.2 67.6q.08.56.65.56h8.52q.73 0 .63-.72l-13.78-96.28a.78.77-13.4 0 0-1.02-.62l-.6.2q-.19.07-.28.25l-38.83 78.85a.19.19 0 0 1-.34 0l-39.1-78.69a1.06 1.06 0 0 0-1.99.32l-13.63 95.97q-.1.72.62.72h8.18q.66 0 .75-.65l9.23-68.03a.34.34 0 0 1 .64-.1l33.67 67.91a1.97 1.96 44.9 0 0 3.52 0l33.33-67.39a.33.33 0 0 1 .63.1M509.32 378.55c-7.99-18.61-25.49-26.26-44.81-27q-16.36-.62-32.63-.19a.4.39 89.3 0 0-.38.4V448q0 .55.55.57 29.25.68 37.95-.06c16.35-1.37 29.52-6.58 37.43-21.59 7.77-14.75 8.41-33.19 1.89-48.37M563.51 395.28q13.63-8.84 11.35-23.92c-3.57-23.67-33.05-20.26-49.88-20.09a.49.49 0 0 0-.48.49v96.26q0 .66.66.67 14.45.26 28.9-.17c32.16-.94 41.18-43.13 9.54-52.56a.38.37-53 0 1-.09-.68M242.27 388.68q-5.15-5.59-6.83-6.89c-14.02-10.92-35.31-8.81-47.52 4.15-18.61 19.75-12.75 52.54 13.08 62.63 15.73 6.15 30.4 1.07 41.19-11.26a.32.32 0 0 1 .56.21V448q0 .75.75.75h7.87q.63 0 .63-.63v-70.87q0-.75-.75-.75h-7.87q-.63 0-.63.62v11.38q0 .7-.48.18M277.25 385.51V377q0-.5-.5-.5h-8.5q-.75 0-.75.75V448q0 .75.75.75h8.49a.52.51 90 0 0 .51-.52c-.06-15.11-.97-31.25 1.19-46.22 1.08-7.45 7.71-21.74 17.52-16.97q.52.25.82-.24l4.43-7.09q.25-.41-.17-.64c-11.33-6.21-17.11.16-23.24 8.61q-.55.76-.55-.17M404.25 437.51v10.74q0 .5.5.5l8.44-.01a.31.31 0 0 0 .31-.31v-71.18q0-.75-.75-.75h-8q-.5 0-.5.5v11.75a.25.25 0 0 1-.45.16c-21.83-27.37-62.88-12.15-65.32 21.25-2.24 30.57 32.45 53.56 57.93 33.99q1.73-1.33 7.35-6.85.49-.48.49.21M323.49 377.01a.5.5 0 0 0-.5-.5h-8.74a.5.5 0 0 0-.5.5v71.24a.5.5 0 0 0 .5.5h8.74a.5.5 0 0 0 .5-.5v-71.24" vector-effect="non-scaling-stroke"/><path stroke="#d1b1a5" d="M313.58 516.81a.54.54 0 0 1 .89.38l.1 2.03a.82.82 0 0 0 .82.78h7.36q.75 0 .75-.75v-57.5q0-.75-.75-.75h-8.37q-.63 0-.63.62V481q0 .66-.53.26c-10.24-7.74-22.47-2.33-25.3 9.67q-2.26 9.56.83 18.85c3.72 11.19 16.07 14.51 24.83 7.03M465.41 467.725a5.39 5.11-.9 0 0-5.47-5.024 5.39 5.11-.9 0 0-5.31 5.194 5.39 5.11-.9 0 0 5.47 5.024 5.39 5.11-.9 0 0 5.31-5.194M68.25 496.98a.48.48 0 0 1 .48-.48h21.29a.48.48 0 0 0 .48-.48v-7.04a.48.48 0 0 0-.48-.48H68.73a.48.48 0 0 1-.48-.48v-15.29a.48.48 0 0 1 .48-.48h24.79a.48.48 0 0 0 .48-.48v-7.04a.48.48 0 0 0-.48-.48H58.73a.48.48 0 0 0-.48.48v54.79a.48.48 0 0 0 .48.48h9.04a.48.48 0 0 0 .48-.48v-22.54M410.74 486.01q-.03 11.91.16 23.8c.17 10.45 8.08 12.29 16.66 10.2q.44-.11.44-.56v-5.69q0-.89-.89-.83-6.73.43-6.79-4.24-.15-11.33-.04-22.7 0-.49.49-.49h6.48q.5 0 .5-.5v-6a.5.5 0 0 0-.5-.5h-6.5q-.5 0-.5-.5v-9q0-.5-.5-.5h-8.5q-.5 0-.5.5v9q0 .5-.5.5h-5.5q-.75 0-.75.75v5.5q0 .75.75.75h5.49q.51 0 .5.51M118.44 516.81c12.22 9.01 28.75 2.47 30.98-12.73 1.63-11.09-2.53-23.43-14.32-25.86-10.72-2.21-19.95 2.78-22.97 13.6-2.26 8.07-1.06 19.56 6.31 24.99M241 482.12l-.36-3.09a.6.59 86.7 0 0-.59-.53h-7.55q-.75 0-.75.75v40.25q0 .5.5.5h8.48a.52.51-.5 0 0 .52-.52q-.01-13.21.01-26.48c.02-9.09 15.23-10.52 15.43-.92q.13 6.4.04 27.34 0 .58.58.58h8.23q.62 0 .63-.62.29-20.02-.06-28.43c-.59-13.94-15.77-17.44-24.43-8.59q-.59.59-.68-.24M371.14 494.52c-8.45-.34-20.08.02-23.31 9.35-5.21 15 13.51 21.31 23.57 13.08q.66-.54.85.29l.49 2.2a.72.71-6 0 0 .7.56h8.8a.51.5 81.1 0 0 .48-.66c-2.44-7.6-1.43-16.29-1.5-24.22q-.05-6.12-.87-8.53c-4.67-13.67-32.67-10.58-32.31 3.5q.02.66.68.66h8.04q.63 0 .7-.62c.82-7.41 15.25-7.61 14.26 3.88q-.04.54-.58.51M495.19 516.31c10.72 8.53 27.06 4.71 30.75-9.08 3.26-12.19-.43-27.11-15.14-29.19q-13.33-1.88-19.53 9.33c-4.54 8.21-3.97 22.67 3.92 28.94M557.03 482l-.34-2.94q-.06-.56-.63-.56h-7.68q-.63 0-.63.63v40.12q0 .75.75.75h8.03a.72.72 0 0 0 .72-.72q0-13.1.01-26.19c.01-9.13 15.34-11.24 15.41-.08q.09 13.09.09 26.3 0 .69.68.69h8.11q.68 0 .68-.67.07-13.11-.01-26.22c-.06-8.28-3.06-14.94-12.35-15.33q-6.88-.29-12.32 4.43-.46.4-.52-.21M195.75 517.02v2.48q0 .5.5.5h7.87q.63 0 .63-.63v-40.12q0-.75-.75-.75h-8.2q-.52 0-.52.52-.09 13.59-.02 27.23c.04 8-15.14 10.3-15.17-.01q-.04-13.58-.13-27.23-.01-.51-.51-.51h-8.64q-.48 0-.49.48c-.2 9.61-2.14 31.77 3.79 37.92 5.63 5.84 15.09 4.77 21.17-.11q.47-.38.47.23M464.75 479.09a.59.59 0 0 0-.59-.59h-8.32a.59.59 0 0 0-.59.59v40.32a.59.59 0 0 0 .59.59h8.32a.59.59 0 0 0 .59-.59v-40.32" vector-effect="non-scaling-stroke"/><path stroke="#70535d" d="M370.39 245.2c-2.04 30.18-14.06 53.8-32.02 77.47a.49.49 0 0 0 .49.77c44.09-9.37 62.73-39.46 79.21-77.73a.37.37 0 0 1 .71.15c-.13 4.78-2.53 8.55-1.45 13.27a.56.56 0 0 0 .91.31c16.87-13.97 28.75-33.53 34.98-53.7 7.72-25 15.09-50.05 25.46-74.13q5.51-12.78 17.87-21.81c12.29-8.98 28.51-17.45 30.48-34.48a.54.54 0 0 0-.49-.61c-5.96-.62-11.55-1.6-13.46-7.79q-.16-.5-.65-.31-9.81 3.82-22.66 3.46c-29.81-.83-48.85 15.76-63.2 39.75-18.01 30.11-33.35 58.59-67.02 73.71-22.47 10.09-45.6 15.23-69.2 21.66-26.19 7.13-50.67 18.83-68.88 38.72-8.24 9-13.54 20.54-22.19 29.36-5.47 5.57-11.77 6.59-19.53 7.48-11.68 1.34-23.31 1.35-34.98 2.85-6.12.78-13.56 2.65-17.67 8.17a.55.54-58.4 0 0 .19.81c5.77 2.97 14.8 2.33 21.12 2.12a.93.93 0 0 1 .93 1.17c-2 7.37-11.28 9.97-16.18 15.14a.93.93 0 0 0 .59 1.57c13.1 1.22 26.04.43 38.59-3.86 26.09-8.92 45.31-30.46 71.42-37.22 31.27-8.09 63.81-5.19 95.74-.74q4.31.6 10.46.43c7.54-.22 13-14.66 15.79-21.39q1.42-3.43 4.03-4.98.67-.4.61.38" vector-effect="non-scaling-stroke"/><path stroke="#70535d" d="M509.43 69.86c-5.05 3.54-17.79 20.78-17.91 26.86a.58.58 0 0 0 1.12.24q6.27-14.72 17.81-25.86a.81.8-84.5 0 0-1.02-1.24" vector-effect="non-scaling-stroke"/><path stroke="#70535d" d="M509.8 73.04c-5.32 8.03-11.27 13.87-13.17 24.22a.38.37 22.1 0 0 .17.39l.46.31q.69.46.86-.35c2.16-9.76 7.53-16.64 13.8-24.23a.87.86-81.6 0 0-1-1.35q-.61.25-1.12 1.01" vector-effect="non-scaling-stroke"/><path stroke="#70535d" d="M512.56 74.08q-8.02 10.99-9.84 23.44-.08.53.06.88.22.54.73.71a.53.53 0 0 0 .7-.43q1.69-12.71 9.35-22.99.19-.25.19-.57v-.65a.66.66 0 0 0-1.19-.39" vector-effect="non-scaling-stroke"/><path stroke="#70535d" d="M514.04 76.1q-6.27 10.15-6.06 22.24a.83.82 77.9 0 0 1.15.75q.48-.21.42-.93c-.61-6.79 2.45-15.37 5.91-21.06a1.01 1.01 0 0 0-.47-1.46q-.52-.23-.95.46M483.31 80.59c-8.17-.91-17.66 1.8-19.53 11.28q-.09.48.32.76c9.01 5.95 21.05.4 20.12-11.1q-.07-.85-.91-.94" vector-effect="non-scaling-stroke"/><path stroke="#8f98af" d="M498.99 421.16c11-20.7 3.02-50.24-21.08-57.39-9.62-2.86-24.86-3.07-36.22-2.71q-.44.02-.44.46v77.23a.42.42 0 0 0 .4.42q15 .54 30.03-.89 19.19-1.83 27.31-17.12M562.77 367.88c-3.84-7.94-20.45-7.3-27.71-6.73q-.56.05-.56.61v29.49q0 .58.58.61 9.94.53 16.61-1.21c11.29-2.95 16.43-11.7 11.08-22.77M534.46 402.77l.06 35.8a.57.57 0 0 0 .57.57l14.98-.02a22.69 18.21-.1 0 0 22.66-18.25v-.52a22.69 18.21-.1 0 0-22.72-18.17l-14.98.02a.57.57 0 0 0-.57.57M214.929 442.34a29.2 28.33 90.1 0 0 28.381-29.15 29.2 28.33 90.1 0 0-28.279-29.25 29.2 28.33 90.1 0 0-28.381 29.15 29.2 28.33 90.1 0 0 28.279 29.25M376.206 442.33a29.2 28.33 90.4 0 0 28.533-29.002 29.2 28.33 90.4 0 0-28.125-29.397 29.2 28.33 90.4 0 0-28.533 29.001 29.2 28.33 90.4 0 0 28.125 29.397" vector-effect="non-scaling-stroke"/><path stroke="#d1b1a5" d="M300.69 511.31q5.89 3.98 11.35-1.07c2.87-2.64 1.71-13.54 1.71-17.54 0-6.69-8.15-8.93-12.83-5.56-5.75 4.14-6.2 20.14-.23 24.17M121.43 505.75c1.5 5.68 7.66 9.25 12.84 6.54 9.78-5.11 7.62-30.3-6.29-26.46-7.93 2.19-8.16 13.81-6.55 19.92M358.98 511.76c3.53 2.58 8.75.95 11.46-2.02 1.97-2.16 1.36-5.55 1.29-8.35q-.02-.54-.56-.58c-4.26-.31-11.31-.5-13.76 3.56q-2.61 4.33 1.57 7.39M499.34 507.17c3.09 8.51 14.47 7.49 17.1-.55 2.33-7.12 1.12-23.19-10.2-21.12-9.26 1.7-9.28 15.12-6.9 21.67" vector-effect="non-scaling-stroke"/></g><path fill="#fff" d="M0 0h.81Q.74.16.56.24a.45.44 77.3 0 0-.25.4L.19 7.25 0 38.2V0Z"/><path fill="#1d0e06" fill-opacity=".18" d="M.81 0H28.51q2.93.59 5.85 0 .07.03.14 0 2.62.58 5.06 0h589q4.67.47 9.43.09 1.07-.09 1.3.35.21.39-.23.39L1.52.82q-.57 0-.61.58L.55 7.26q-.18-.01-.36-.01L.31.64a.45.44 77.3 0 1 .25-.4Q.74.16.81 0Z"/><path fill="#fff" d="M7.53 0h16.31H7.53ZM28.51 0h5.85q-2.92.59-5.85 0Z"/><path fill="#c0765a" d="M34.5 0h5.06q-2.44.58-5.06 0Z"/><path fill="#fff" d="M628.56 0H640v578H0V38.44l.25 539.14q0 .09.08.12.13.04.25.08.16.05.16-.11L.55 7.26.91 1.4q.04-.58.61-.58l637.54.01q.44 0 .23-.39-.23-.44-1.3-.35-4.76.38-9.43-.09ZM145.15 298.96c-4.76 3.87-13.51 8.62-14.98 14.83q-.47 2.02 1.89 2.29 27.39 3.24 51.86-4.85c18.7-6.18 34.63-19.02 52.81-25.65 16.59-6.05 34.34-6.17 51.52-4.07 20.83 2.55 43.66 6.75 65.69 9a.39.38-72.4 0 1 .29.57c-6.94 12.52-15.33 24.12-23.65 35.75a1.94 1.94 0 0 0 .85 2.92c4.39 1.75 7.35.93 12.67-.19q27.93-5.87 48.64-24.75c7.39-6.74 15.09-16.46 22.05-24.97q.33-.4.65.01c9.61 12.44 27.38 16.55 42.24 14.49 5.76-.8 11.97-3.2 15.05-8.39q.27-.46-.18-.74c-13.95-8.78-16.08-31.79-13.84-46.3q.6-3.88 2.95-10.06 2.68-7.08 5.34-16.1 9.75-33.08 15.36-63.48c2.11-11.42 5.06-22.39 12.95-31.39 10.07-11.48 26.33-17.55 33.48-31.83 3.43-6.84 9.44-28.55-6.05-27.38q-1.71.13-4.17 1.43c-13.03 6.87-27.05 6.91-40.99 8.31q-24.26 2.43-39.45 21.27c-18.62 23.08-32.98 63.67-62.16 82.07-23.74 14.96-50.76 21.81-79.55 29.19-25.09 6.43-51.92 17.78-70.75 35.96-6.98 6.74-13.04 16.3-19.28 24.62-7.69 10.26-14.02 15.12-27.15 16.49q-14.93 1.55-21.17 1.92c-13.09.77-25.32 2.37-34.17 12.04q-1.29 1.4.23 2.56c6.23 4.71 13.14 4.37 20.72 3.7a.41.41 0 0 1 .3.73Zm181.24 57.7a7.72 7.72 0 0 0-7.72-7.72 7.72 7.72 0 0 0-7.72 7.72 7.72 7.72 0 0 0 7.72 7.72 7.72 7.72 0 0 0 7.72-7.72Zm-177.73 23.93 9.2 67.6q.08.56.65.56h8.52q.73 0 .63-.72l-13.78-96.28a.78.77-13.4 0 0-1.02-.62l-.6.2q-.19.07-.28.25l-38.83 78.85a.19.19 0 0 1-.34 0l-39.1-78.69a1.06 1.06 0 0 0-1.99.32l-13.63 95.97q-.1.72.62.72h8.18q.66 0 .75-.65l9.23-68.03a.34.34 0 0 1 .64-.1l33.67 67.91a1.97 1.96 44.9 0 0 3.52 0l33.33-67.39a.33.33 0 0 1 .63.1Zm360.66-2.04c-7.99-18.61-25.49-26.26-44.81-27q-16.36-.62-32.63-.19a.4.39 89.3 0 0-.38.4V448q0 .55.55.57 29.25.68 37.95-.06c16.35-1.37 29.52-6.58 37.43-21.59 7.77-14.75 8.41-33.19 1.89-48.37Zm54.19 16.73q13.63-8.84 11.35-23.92c-3.57-23.67-33.05-20.26-49.88-20.09a.49.49 0 0 0-.48.49v96.26q0 .66.66.67 14.45.26 28.9-.17c32.16-.94 41.18-43.13 9.54-52.56a.38.37-53 0 1-.09-.68Zm-321.24-6.6q-5.15-5.59-6.83-6.89c-14.02-10.92-35.31-8.81-47.52 4.15-18.61 19.75-12.75 52.54 13.08 62.63 15.73 6.15 30.4 1.07 41.19-11.26a.32.32 0 0 1 .56.21V448q0 .75.75.75h7.87q.63 0 .63-.63v-70.87q0-.75-.75-.75h-7.87q-.63 0-.63.62v11.38q0 .7-.48.18Zm34.98-3.17V377q0-.5-.5-.5h-8.5q-.75 0-.75.75V448q0 .75.75.75h8.49a.52.51 90 0 0 .51-.52c-.06-15.11-.97-31.25 1.19-46.22 1.08-7.45 7.71-21.74 17.52-16.97q.52.25.82-.24l4.43-7.09q.25-.41-.17-.64c-11.33-6.21-17.11.16-23.24 8.61q-.55.76-.55-.17Zm127 52v10.74q0 .5.5.5l8.44-.01a.31.31 0 0 0 .31-.31v-71.18q0-.75-.75-.75h-8q-.5 0-.5.5v11.75a.25.25 0 0 1-.45.16c-21.83-27.37-62.88-12.15-65.32 21.25-2.24 30.57 32.45 53.56 57.93 33.99q1.73-1.33 7.35-6.85.49-.48.49.21Zm-80.76-60.5a.5.5 0 0 0-.5-.5h-8.74a.5.5 0 0 0-.5.5v71.24a.5.5 0 0 0 .5.5h8.74a.5.5 0 0 0 .5-.5v-71.24Zm-9.91 139.8a.54.54 0 0 1 .89.38l.1 2.03a.82.82 0 0 0 .82.78h7.36q.75 0 .75-.75v-57.5q0-.75-.75-.75h-8.37q-.63 0-.63.62V481q0 .66-.53.26c-10.24-7.74-22.47-2.33-25.3 9.67q-2.26 9.56.83 18.85c3.72 11.19 16.07 14.51 24.83 7.03Zm151.83-49.085a5.39 5.11-.9 0 0-5.47-5.024 5.39 5.11-.9 0 0-5.31 5.194 5.39 5.11-.9 0 0 5.47 5.024 5.39 5.11-.9 0 0 5.31-5.194ZM68.25 496.98a.48.48 0 0 1 .48-.48h21.29a.48.48 0 0 0 .48-.48v-7.04a.48.48 0 0 0-.48-.48H68.73a.48.48 0 0 1-.48-.48v-15.29a.48.48 0 0 1 .48-.48h24.79a.48.48 0 0 0 .48-.48v-7.04a.48.48 0 0 0-.48-.48H58.73a.48.48 0 0 0-.48.48v54.79a.48.48 0 0 0 .48.48h9.04a.48.48 0 0 0 .48-.48v-22.54Zm342.49-10.97q-.03 11.91.16 23.8c.17 10.45 8.08 12.29 16.66 10.2q.44-.11.44-.56v-5.69q0-.89-.89-.83-6.73.43-6.79-4.24-.15-11.33-.04-22.7 0-.49.49-.49h6.48q.5 0 .5-.5v-6a.5.5 0 0 0-.5-.5h-6.5q-.5 0-.5-.5v-9q0-.5-.5-.5h-8.5q-.5 0-.5.5v9q0 .5-.5.5h-5.5q-.75 0-.75.75v5.5q0 .75.75.75h5.49q.51 0 .5.51Zm-292.3 30.8c12.22 9.01 28.75 2.47 30.98-12.73 1.63-11.09-2.53-23.43-14.32-25.86-10.72-2.21-19.95 2.78-22.97 13.6-2.26 8.07-1.06 19.56 6.31 24.99ZM241 482.12l-.36-3.09a.6.59 86.7 0 0-.59-.53h-7.55q-.75 0-.75.75v40.25q0 .5.5.5h8.48a.52.51-.5 0 0 .52-.52q-.01-13.21.01-26.48c.02-9.09 15.23-10.52 15.43-.92q.13 6.4.04 27.34 0 .58.58.58h8.23q.62 0 .63-.62.29-20.02-.06-28.43c-.59-13.94-15.77-17.44-24.43-8.59q-.59.59-.68-.24Zm130.14 12.4c-8.45-.34-20.08.02-23.31 9.35-5.21 15 13.51 21.31 23.57 13.08q.66-.54.85.29l.49 2.2a.72.71-6 0 0 .7.56h8.8a.51.5 81.1 0 0 .48-.66c-2.44-7.6-1.43-16.29-1.5-24.22q-.05-6.12-.87-8.53c-4.67-13.67-32.67-10.58-32.31 3.5q.02.66.68.66h8.04q.63 0 .7-.62c.82-7.41 15.25-7.61 14.26 3.88q-.04.54-.58.51Zm124.05 21.79c10.72 8.53 27.06 4.71 30.75-9.08 3.26-12.19-.43-27.11-15.14-29.19q-13.33-1.88-19.53 9.33c-4.54 8.21-3.97 22.67 3.92 28.94ZM557.03 482l-.34-2.94q-.06-.56-.63-.56h-7.68q-.63 0-.63.63v40.12q0 .75.75.75h8.03a.72.72 0 0 0 .72-.72q0-13.1.01-26.19c.01-9.13 15.34-11.24 15.41-.08q.09 13.09.09 26.3 0 .69.68.69h8.11q.68 0 .68-.67.07-13.11-.01-26.22c-.06-8.28-3.06-14.94-12.35-15.33q-6.88-.29-12.32 4.43-.46.4-.52-.21Zm-361.28 35.02v2.48q0 .5.5.5h7.87q.63 0 .63-.63v-40.12q0-.75-.75-.75h-8.2q-.52 0-.52.52-.09 13.59-.02 27.23c.04 8-15.14 10.3-15.17-.01q-.04-13.58-.13-27.23-.01-.51-.51-.51h-8.64q-.48 0-.49.48c-.2 9.61-2.14 31.77 3.79 37.92 5.63 5.84 15.09 4.77 21.17-.11q.47-.38.47.23Zm269-37.93a.59.59 0 0 0-.59-.59h-8.32a.59.59 0 0 0-.59.59v40.32a.59.59 0 0 0 .59.59h8.32a.59.59 0 0 0 .59-.59v-40.32Z"/><path fill="#1f305f" d="M.19 7.25q.18 0 .36.01l.19 570.41q0 .16-.16.11-.12-.04-.25-.08-.08-.03-.08-.12L0 38.44v-.24L.19 7.25ZM145.15 298.96a.41.41 0 0 0-.3-.73c-7.58.67-14.49 1.01-20.72-3.7q-1.52-1.16-.23-2.56c8.85-9.67 21.08-11.27 34.17-12.04q6.24-.37 21.17-1.92c13.13-1.37 19.46-6.23 27.15-16.49 6.24-8.32 12.3-17.88 19.28-24.62 18.83-18.18 45.66-29.53 70.75-35.96 28.79-7.38 55.81-14.23 79.55-29.19 29.18-18.4 43.54-58.99 62.16-82.07q15.19-18.84 39.45-21.27c13.94-1.4 27.96-1.44 40.99-8.31q2.46-1.3 4.17-1.43c15.49-1.17 9.48 20.54 6.05 27.38-7.15 14.28-23.41 20.35-33.48 31.83-7.89 9-10.84 19.97-12.95 31.39q-5.61 30.4-15.36 63.48-2.66 9.02-5.34 16.1-2.35 6.18-2.95 10.06c-2.24 14.51-.11 37.52 13.84 46.3q.45.28.18.74c-3.08 5.19-9.29 7.59-15.05 8.39-14.86 2.06-32.63-2.05-42.24-14.49q-.32-.41-.65-.01c-6.96 8.51-14.66 18.23-22.05 24.97q-20.71 18.88-48.64 24.75c-5.32 1.12-8.28 1.94-12.67.19a1.94 1.94 0 0 1-.85-2.92c8.32-11.63 16.71-23.23 23.65-35.75a.39.38-72.4 0 0-.29-.57c-22.03-2.25-44.86-6.45-65.69-9-17.18-2.1-34.93-1.98-51.52 4.07-18.18 6.63-34.11 19.47-52.81 25.65q-24.47 8.09-51.86 4.85-2.36-.27-1.89-2.29c1.47-6.21 10.22-10.96 14.98-14.83Zm225.24-53.76c-2.04 30.18-14.06 53.8-32.02 77.47a.49.49 0 0 0 .49.77c44.09-9.37 62.73-39.46 79.21-77.73a.37.37 0 0 1 .71.15c-.13 4.78-2.53 8.55-1.45 13.27a.56.56 0 0 0 .91.31c16.87-13.97 28.75-33.53 34.98-53.7 7.72-25 15.09-50.05 25.46-74.13q5.51-12.78 17.87-21.81c12.29-8.98 28.51-17.45 30.48-34.48a.54.54 0 0 0-.49-.61c-5.96-.62-11.55-1.6-13.46-7.79q-.16-.5-.65-.31-9.81 3.82-22.66 3.46c-29.81-.83-48.85 15.76-63.2 39.75-18.01 30.11-33.35 58.59-67.02 73.71-22.47 10.09-45.6 15.23-69.2 21.66-26.19 7.13-50.67 18.83-68.88 38.72-8.24 9-13.54 20.54-22.19 29.36-5.47 5.57-11.77 6.59-19.53 7.48-11.68 1.34-23.31 1.35-34.98 2.85-6.12.78-13.56 2.65-17.67 8.17a.55.54-58.4 0 0 .19.81c5.77 2.97 14.8 2.33 21.12 2.12a.93.93 0 0 1 .93 1.17c-2 7.37-11.28 9.97-16.18 15.14a.93.93 0 0 0 .59 1.57c13.1 1.22 26.04.43 38.59-3.86 26.09-8.92 45.31-30.46 71.42-37.22 31.27-8.09 63.81-5.19 95.74-.74q4.31.6 10.46.43c7.54-.22 13-14.66 15.79-21.39q1.42-3.43 4.03-4.98.67-.4.61.38Z"/><path fill="#c0765a" d="M369.78 244.82q-2.61 1.55-4.03 4.98c-2.79 6.73-8.25 21.17-15.79 21.39q-6.15.17-10.46-.43c-31.93-4.45-64.47-7.35-95.74.74-26.11 6.76-45.33 28.3-71.42 37.22-12.55 4.29-25.49 5.08-38.59 3.86a.93.93 0 0 1-.59-1.57c4.9-5.17 14.18-7.77 16.18-15.14a.93.93 0 0 0-.93-1.17c-6.32.21-15.35.85-21.12-2.12a.55.54-58.4 0 1-.19-.81c4.11-5.52 11.55-7.39 17.67-8.17 11.67-1.5 23.3-1.51 34.98-2.85 7.76-.89 14.06-1.91 19.53-7.48 8.65-8.82 13.95-20.36 22.19-29.36 18.21-19.89 42.69-31.59 68.88-38.72 23.6-6.43 46.73-11.57 69.2-21.66 33.67-15.12 49.01-43.6 67.02-73.71 14.35-23.99 33.39-40.58 63.2-39.75q12.85.36 22.66-3.46.49-.19.65.31c1.91 6.19 7.5 7.17 13.46 7.79a.54.54 0 0 1 .49.61c-1.97 17.03-18.19 25.5-30.48 34.48q-12.36 9.03-17.87 21.81c-10.37 24.08-17.74 49.13-25.46 74.13-6.23 20.17-18.11 39.73-34.98 53.7a.56.56 0 0 1-.91-.31c-1.08-4.72 1.32-8.49 1.45-13.27a.37.37 0 0 0-.71-.15c-16.48 38.27-35.12 68.36-79.21 77.73a.49.49 0 0 1-.49-.77c17.96-23.67 29.98-47.29 32.02-77.47q.06-.78-.61-.38ZM509.43 69.86c-5.05 3.54-17.79 20.78-17.91 26.86a.58.58 0 0 0 1.12.24q6.27-14.72 17.81-25.86a.81.8-84.5 0 0-1.02-1.24Zm.37 3.18c-5.32 8.03-11.27 13.87-13.17 24.22a.38.37 22.1 0 0 .17.39l.46.31q.69.46.86-.35c2.16-9.76 7.53-16.64 13.8-24.23a.87.86-81.6 0 0-1-1.35q-.61.25-1.12 1.01Zm2.76 1.04q-8.02 10.99-9.84 23.44-.08.53.06.88.22.54.73.71a.53.53 0 0 0 .7-.43q1.69-12.71 9.35-22.99.19-.25.19-.57v-.65a.66.66 0 0 0-1.19-.39Zm1.48 2.02q-6.27 10.15-6.06 22.24a.83.82 77.9 0 0 1.15.75q.48-.21.42-.93c-.61-6.79 2.45-15.37 5.91-21.06a1.01 1.01 0 0 0-.47-1.46q-.52-.23-.95.46Zm-30.73 4.49c-8.17-.91-17.66 1.8-19.53 11.28q-.09.48.32.76c9.01 5.95 21.05.4 20.12-11.1q-.07-.85-.91-.94Z"/><path fill="#1f305f" d="M491.52 96.72c.12-6.08 12.86-23.32 17.91-26.86a.81.8-84.5 0 1 1.02 1.24q-11.54 11.14-17.81 25.86a.58.58 0 0 1-1.12-.24Z"/><path fill="#1f305f" d="M509.8 73.04q.51-.76 1.12-1.01a.87.86-81.6 0 1 1 1.35c-6.27 7.59-11.64 14.47-13.8 24.23q-.17.81-.86.35l-.46-.31a.38.37 22.1 0 1-.17-.39c1.9-10.35 7.85-16.19 13.17-24.22Z"/><path fill="#1f305f" d="M512.56 74.08a.66.66 0 0 1 1.19.39v.65q0 .32-.19.57-7.66 10.28-9.35 22.99a.53.53 0 0 1-.7.43q-.51-.17-.73-.71-.14-.35-.06-.88 1.82-12.45 9.84-23.44Z"/><path fill="#1f305f" d="M514.04 76.1q.43-.69.95-.46a1.01 1.01 0 0 1 .47 1.46c-3.46 5.69-6.52 14.27-5.91 21.06q.06.72-.42.93a.83.82 77.9 0 1-1.15-.75q-.21-12.09 6.06-22.24ZM463.78 91.87c1.87-9.48 11.36-12.19 19.53-11.28q.84.09.91.94c.93 11.5-11.11 17.05-20.12 11.1q-.41-.28-.32-.76Z"/><circle cx="318.67" cy="356.66" r="7.72" fill="#1f305f"/><path fill="#1f305f" d="M148.66 380.59a.33.33 0 0 0-.63-.1l-33.33 67.39a1.97 1.96 44.9 0 1-3.52 0l-33.67-67.91a.34.34 0 0 0-.64.1l-9.23 68.03q-.09.65-.75.65h-8.18q-.72 0-.62-.72l13.63-95.97a1.06 1.06 0 0 1 1.99-.32l39.1 78.69a.19.19 0 0 0 .34 0l38.83-78.85q.09-.18.28-.25l.6-.2a.78.77-13.4 0 1 1.02.62l13.78 96.28q.1.72-.63.72h-8.52q-.57 0-.65-.56l-9.2-67.6ZM464.51 351.55c19.32.74 36.82 8.39 44.81 27 6.52 15.18 5.88 33.62-1.89 48.37-7.91 15.01-21.08 20.22-37.43 21.59q-8.7.74-37.95.06-.55-.02-.55-.57v-96.24a.4.39 89.3 0 1 .38-.4q16.27-.43 32.63.19Zm34.48 69.61c11-20.7 3.02-50.24-21.08-57.39-9.62-2.86-24.86-3.07-36.22-2.71q-.44.02-.44.46v77.23a.42.42 0 0 0 .4.42q15 .54 30.03-.89 19.19-1.83 27.31-17.12ZM563.51 395.28a.38.37-53 0 0 .09.68c31.64 9.43 22.62 51.62-9.54 52.56q-14.45.43-28.9.17-.66-.01-.66-.67v-96.26a.49.49 0 0 1 .48-.49c16.83-.17 46.31-3.58 49.88 20.09q2.28 15.08-11.35 23.92Zm-.74-27.4c-3.84-7.94-20.45-7.3-27.71-6.73q-.56.05-.56.61v29.49q0 .58.58.61 9.94.53 16.61-1.21c11.29-2.95 16.43-11.7 11.08-22.77Zm-28.31 34.89.06 35.8a.57.57 0 0 0 .57.57l14.98-.02a22.69 18.21-.1 0 0 22.66-18.25v-.52a22.69 18.21-.1 0 0-22.72-18.17l-14.98.02a.57.57 0 0 0-.57.57Z"/><path fill="#fff" d="M477.91 363.77c24.1 7.15 32.08 36.69 21.08 57.39q-8.12 15.29-27.31 17.12-15.03 1.43-30.03.89a.42.42 0 0 1-.4-.42v-77.23q0-.44.44-.46c11.36-.36 26.6-.15 36.22 2.71ZM535.06 361.15c7.26-.57 23.87-1.21 27.71 6.73 5.35 11.07.21 19.82-11.08 22.77q-6.67 1.74-16.61 1.21-.58-.03-.58-.61v-29.49q0-.56.56-.61Z"/><path fill="#1f305f" d="M242.75 388.5v-11.38q0-.62.63-.62h7.87q.75 0 .75.75v70.87q0 .63-.63.63h-7.87q-.75 0-.75-.75v-10.48a.32.32 0 0 0-.56-.21c-10.79 12.33-25.46 17.41-41.19 11.26-25.83-10.09-31.69-42.88-13.08-62.63 12.21-12.96 33.5-15.07 47.52-4.15q1.68 1.3 6.83 6.89.48.52.48-.18Zm-27.821 53.84a29.2 28.33 90.1 0 0 28.381-29.15 29.2 28.33 90.1 0 0-28.279-29.25 29.2 28.33 90.1 0 0-28.381 29.15 29.2 28.33 90.1 0 0 28.279 29.25ZM277.8 385.68c6.13-8.45 11.91-14.82 23.24-8.61q.42.23.17.64l-4.43 7.09q-.3.49-.82.24c-9.81-4.77-16.44 9.52-17.52 16.97-2.16 14.97-1.25 31.11-1.19 46.22a.52.51 90 0 1-.51.52h-8.49q-.75 0-.75-.75v-70.75q0-.75.75-.75h8.5q.5 0 .5.5v8.51q0 .93.55.17ZM403.76 437.3q-5.62 5.52-7.35 6.85c-25.48 19.57-60.17-3.42-57.93-33.99 2.44-33.4 43.49-48.62 65.32-21.25a.25.25 0 0 0 .45-.16V377q0-.5.5-.5h8q.75 0 .75.75v71.18a.31.31 0 0 1-.31.31l-8.44.01q-.5 0-.5-.5v-10.74q0-.69-.49-.21Zm-27.554 5.03a29.2 28.33 90.4 0 0 28.533-29.002 29.2 28.33 90.4 0 0-28.125-29.397 29.2 28.33 90.4 0 0-28.533 29.001 29.2 28.33 90.4 0 0 28.125 29.397Z"/><rect width="9.74" height="72.24" x="313.75" y="376.51" fill="#1f305f" rx=".5"/><ellipse fill="#fff" rx="29.2" ry="28.33" transform="rotate(90.1 -98.72 313.873)"/><ellipse fill="#fff" rx="29.2" ry="28.33" transform="rotate(90.4 -16.923 393.46)"/><path fill="#fff" d="M534.46 402.77a.57.57 0 0 1 .57-.57l14.98-.02a22.69 18.21-.1 0 1 22.72 18.17v.52a22.69 18.21-.1 0 1-22.66 18.25l-14.98.02a.57.57 0 0 1-.57-.57l-.06-35.8Z"/><path fill="#a2634b" d="M313.58 516.81c-8.76 7.48-21.11 4.16-24.83-7.03q-3.09-9.29-.83-18.85c2.83-12 15.06-17.41 25.3-9.67q.53.4.53-.26v-19.38q0-.62.63-.62h8.37q.75 0 .75.75v57.5q0 .75-.75.75h-7.36a.82.82 0 0 1-.82-.78l-.1-2.03a.54.54 0 0 0-.89-.38Zm-12.89-5.5q5.89 3.98 11.35-1.07c2.87-2.64 1.71-13.54 1.71-17.54 0-6.69-8.15-8.93-12.83-5.56-5.75 4.14-6.2 20.14-.23 24.17Z"/><ellipse fill="#a2634b" rx="5.39" ry="5.11" transform="rotate(-.9 30011.107 -29051.276)"/><path fill="#a2634b" d="M68.25 496.98v22.54a.48.48 0 0 1-.48.48h-9.04a.48.48 0 0 1-.48-.48v-54.79a.48.48 0 0 1 .48-.48h34.79a.48.48 0 0 1 .48.48v7.04a.48.48 0 0 1-.48.48H68.73a.48.48 0 0 0-.48.48v15.29a.48.48 0 0 0 .48.48h21.29a.48.48 0 0 1 .48.48v7.04a.48.48 0 0 1-.48.48H68.73a.48.48 0 0 0-.48.48ZM410.24 485.5h-5.49q-.75 0-.75-.75v-5.5q0-.75.75-.75h5.5q.5 0 .5-.5v-9q0-.5.5-.5h8.5q.5 0 .5.5v9q0 .5.5.5h6.5a.5.5 0 0 1 .5.5v6q0 .5-.5.5h-6.48q-.49 0-.49.49-.11 11.37.04 22.7.06 4.67 6.79 4.24.89-.06.89.83v5.69q0 .45-.44.56c-8.58 2.09-16.49.25-16.66-10.2q-.19-11.89-.16-23.8.01-.51-.5-.51ZM118.44 516.81c-7.37-5.43-8.57-16.92-6.31-24.99 3.02-10.82 12.25-15.81 22.97-13.6 11.79 2.43 15.95 14.77 14.32 25.86-2.23 15.2-18.76 21.74-30.98 12.73Zm2.99-11.06c1.5 5.68 7.66 9.25 12.84 6.54 9.78-5.11 7.62-30.3-6.29-26.46-7.93 2.19-8.16 13.81-6.55 19.92ZM241.68 482.36c8.66-8.85 23.84-5.35 24.43 8.59q.35 8.41.06 28.43-.01.62-.63.62h-8.23q-.58 0-.58-.58.09-20.94-.04-27.34c-.2-9.6-15.41-8.17-15.43.92q-.02 13.27-.01 26.48a.52.51-.5 0 1-.52.52h-8.48q-.5 0-.5-.5v-40.25q0-.75.75-.75h7.55a.6.59 86.7 0 1 .59.53l.36 3.09q.09.83.68.24ZM371.72 494.01c.99-11.49-13.44-11.29-14.26-3.88q-.07.62-.7.62h-8.04q-.66 0-.68-.66c-.36-14.08 27.64-17.17 32.31-3.5q.82 2.41.87 8.53c.07 7.93-.94 16.62 1.5 24.22a.51.5 81.1 0 1-.48.66h-8.8a.72.71-6 0 1-.7-.56l-.49-2.2q-.19-.83-.85-.29c-10.06 8.23-28.78 1.92-23.57-13.08 3.23-9.33 14.86-9.69 23.31-9.35q.54.03.58-.51Zm-12.74 17.75c3.53 2.58 8.75.95 11.46-2.02 1.97-2.16 1.36-5.55 1.29-8.35q-.02-.54-.56-.58c-4.26-.31-11.31-.5-13.76 3.56q-2.61 4.33 1.57 7.39ZM495.19 516.31c-7.89-6.27-8.46-20.73-3.92-28.94q6.2-11.21 19.53-9.33c14.71 2.08 18.4 17 15.14 29.19-3.69 13.79-20.03 17.61-30.75 9.08Zm4.15-9.14c3.09 8.51 14.47 7.49 17.1-.55 2.33-7.12 1.12-23.19-10.2-21.12-9.26 1.7-9.28 15.12-6.9 21.67ZM557.55 482.21q5.44-4.72 12.32-4.43c9.29.39 12.29 7.05 12.35 15.33q.08 13.11.01 26.22 0 .67-.68.67h-8.11q-.68 0-.68-.69 0-13.21-.09-26.3c-.07-11.16-15.4-9.05-15.41.08q-.01 13.09-.01 26.19a.72.72 0 0 1-.72.72h-8.03q-.75 0-.75-.75v-40.12q0-.63.63-.63h7.68q.57 0 .63.56l.34 2.94q.06.61.52.21ZM195.28 516.79c-6.08 4.88-15.54 5.95-21.17.11-5.93-6.15-3.99-28.31-3.79-37.92q.01-.48.49-.48h8.64q.5 0 .51.51.09 13.65.13 27.23c.03 10.31 15.21 8.01 15.17.01q-.07-13.64.02-27.23 0-.52.52-.52h8.2q.75 0 .75.75v40.12q0 .63-.63.63h-7.87q-.5 0-.5-.5v-2.48q0-.61-.47-.23Z"/><rect width="9.5" height="41.5" x="455.25" y="478.5" fill="#a2634b" rx=".59"/><path fill="#fff" d="M134.27 512.29c-5.18 2.71-11.34-.86-12.84-6.54-1.61-6.11-1.38-17.73 6.55-19.92 13.91-3.84 16.07 21.35 6.29 26.46ZM300.69 511.31c-5.97-4.03-5.52-20.03.23-24.17 4.68-3.37 12.83-1.13 12.83 5.56 0 4 1.16 14.9-1.71 17.54q-5.46 5.05-11.35 1.07ZM516.44 506.62c-2.63 8.04-14.01 9.06-17.1.55-2.38-6.55-2.36-19.97 6.9-21.67 11.32-2.07 12.53 14 10.2 21.12ZM358.98 511.76q-4.18-3.06-1.57-7.39c2.45-4.06 9.5-3.87 13.76-3.56q.54.04.56.58c.07 2.8.68 6.19-1.29 8.35-2.71 2.97-7.93 4.6-11.46 2.02Z"/></svg>