<svg height="73" viewBox="0 0 73 73" width="73" xmlns="http://www.w3.org/2000/svg"><g fill="none"><rect fill="#cb3837" height="71" rx="14" stroke="#5b0403" stroke-width="2" width="71" x="1" y="1"/><g transform="translate(12 27)"><path d="m0 0h50v16.6666667h-25v2.7777777h-11.1111111v-2.7777777h-13.8888889zm2.77777778 13.8888889h5.55555555v-8.33333334h2.77777777v8.33333334h2.7777778v-11.11111112h-11.11111112zm13.88888892-11.11111112v13.88888892h5.5555555v-2.7777778h5.5555556v-11.11111112zm5.5555555 2.77777778h2.7777778v5.55555554h-2.7777778zm8.3333334-2.77777778v11.11111112h5.5555555v-8.33333334h2.7777778v8.33333334h2.7777778v-8.33333334h2.7777777v8.33333334h2.7777778v-11.11111112z" fill="#cb3837"/><g fill="#fff"><path d="m2.77777778 13.8888889h5.55555555v-8.33333334h2.77777777v8.33333334h2.7777778v-11.11111112h-11.11111112z"/><path d="m16.6666667 2.77777778v13.88888892h5.5555555v-2.7777778h5.5555556v-11.11111112zm8.3333333 8.33333332h-2.7777778v-5.55555554h2.7777778z"/><path d="m30.5555556 2.77777778v11.11111112h5.5555555v-8.33333334h2.7777778v8.33333334h2.7777778v-8.33333334h2.7777777v8.33333334h2.7777778v-11.11111112z"/></g></g></g></svg>